<?xml version="1.0" standalone="no"?>
<!DOCTYPE svg PUBLIC "-//W3C//DTD SVG 20010904//EN"
 "http://www.w3.org/TR/2001/REC-SVG-20010904/DTD/svg10.dtd">
<svg version="1.0" xmlns="http://www.w3.org/2000/svg"
 width="640.000000pt" height="640.000000pt" viewBox="0 0 640.000000 640.000000"
 preserveAspectRatio="xMidYMid meet">

<g transform="translate(0.000000,640.000000) scale(0.100000,-0.100000)"
fill="#000000" stroke="none">
<path d="M1746 6389 c-131 -19 -257 -114 -321 -241 -34 -69 -35 -73 -35 -191
0 -66 5 -137 12 -159 7 -24 42 -74 87 -126 41 -48 610 -624 1265 -1279 l1190
-1193 -1190 -1192 c-655 -656 -1224 -1232 -1265 -1280 -45 -52 -80 -102 -87
-126 -7 -22 -12 -93 -12 -159 0 -118 1 -122 35 -191 42 -84 132 -172 215 -211
50 -24 66 -26 185 -26 122 0 134 2 190 28 54 25 181 149 1248 1215 1273 1271
1694 1701 1724 1760 14 29 19 66 21 169 5 184 2 190 -215 418 -237 249 -2611
2617 -2700 2693 -52 44 -88 65 -125 76 -73 20 -152 26 -222 15z"/>
</g>
</svg>
