<?xml version="1.0" standalone="no"?>
<!DOCTYPE svg PUBLIC "-//W3C//DTD SVG 20010904//EN"
 "http://www.w3.org/TR/2001/REC-SVG-20010904/DTD/svg10.dtd">
<svg version="1.0" xmlns="http://www.w3.org/2000/svg"
 width="640.000000pt" height="640.000000pt" viewBox="0 0 640.000000 640.000000"
 preserveAspectRatio="xMidYMid meet">

<g transform="translate(0.000000,640.000000) scale(0.100000,-0.100000)"
fill="#000000" stroke="none">
<path d="M4408 6366 c-41 -16 -87 -51 -155 -114 -156 -144 -2660 -2657 -2754
-2763 -54 -62 -89 -111 -97 -136 -7 -22 -12 -94 -12 -159 0 -166 6 -177 218
-400 216 -228 2605 -2611 2693 -2687 77 -66 114 -83 206 -97 85 -12 188 2 258
34 78 35 168 125 210 208 34 69 35 73 35 191 0 66 -5 137 -12 159 -7 24 -42
74 -87 126 -41 48 -610 624 -1265 1279 l-1190 1193 1190 1192 c655 656 1224
1232 1265 1280 45 52 80 102 87 126 7 22 12 93 12 159 0 118 -1 122 -35 191
-42 84 -132 172 -215 211 -48 22 -71 26 -175 29 -108 2 -126 0 -177 -22z"/>
</g>
</svg>
