<?xml version="1.0" encoding="iso-8859-1"?>
<!-- Generator: Adobe Illustrator 19.0.0, SVG Export Plug-In . SVG Version: 6.00 Build 0)  -->
<svg version="1.1" id="Capa_1" xmlns="http://www.w3.org/2000/svg" xmlns:xlink="http://www.w3.org/1999/xlink" x="0px" y="0px"
	 viewBox="0 0 511.999 511.999" style="enable-background:new 0 0 511.999 511.999;" xml:space="preserve">
<g>
	<g>
		<path d="M261.301,200.636c-1.563-1.562-4.092-1.562-5.655,0L80.341,375.932c-1.562,1.562-1.562,4.093,0,5.655
			c0.781,0.78,1.804,1.171,2.827,1.171s2.046-0.391,2.828-1.171L261.301,206.29C262.863,204.729,262.864,202.198,261.301,200.636z"
			/>
	</g>
</g>
<g>
	<g>
		<path d="M323.503,262.835c-1.562-1.562-4.092-1.562-5.654,0l-175.3,175.304c-1.562,1.562-1.562,4.093,0,5.655
			c0.781,0.78,1.804,1.171,2.827,1.171c1.023,0,2.046-0.391,2.827-1.171l175.3-175.305
			C325.065,266.928,325.065,264.397,323.503,262.835z"/>
	</g>
</g>
<g>
	<g>
		<path d="M148.203,438.139c-1.562-1.562-4.092-1.562-5.654,0C66.771,513.928,8.578,478.72,6.138,477.174
			c-1.867-1.164-4.343-0.617-5.514,1.25c-1.179,1.859-0.632,4.318,1.226,5.506c0.325,0.203,16.746,10.277,43.143,10.277
			c26.448,0,62.914-10.121,103.209-50.413C149.765,442.232,149.765,439.701,148.203,438.139z"/>
	</g>
</g>
<g>
	<g>
		<path d="M278.258,274.145c-1.56-1.562-4.092-1.562-5.654,0L125.581,421.177c-35.793,35.801-65.69,42.088-84.543,41.159
			c-2.168-0.321-4.085,1.577-4.202,3.78c-0.113,2.21,1.581,4.092,3.788,4.201c1.285,0.07,2.617,0.109,3.995,0.109
			c20.525,0,51.125-8.099,86.617-43.596L278.258,279.8C279.82,278.238,279.82,275.707,278.258,274.145z"/>
	</g>
</g>
<g>
	<g>
		<path d="M85.227,375.332c-1.901-1.148-4.35-0.523-5.486,1.374c-33.27,55.451-78.12,100.57-78.569,101.023
			c-1.562,1.561-1.562,4.092,0,5.654c0.781,0.781,1.805,1.172,2.827,1.172c1.023,0,2.046-0.391,2.827-1.172
			c0.457-0.453,45.978-46.243,79.772-102.569C87.734,378.925,87.12,376.464,85.227,375.332z"/>
	</g>
</g>
<g>
	<g>
		<path d="M363.109,211.91c-1.562-1.554-4.093-1.558-5.654,0.004l-16.957,16.979c-1.561,1.565-1.561,4.096,0,5.658
			c0.781,0.777,1.805,1.168,2.828,1.168c1.024,0,2.053-0.391,2.834-1.171l16.957-16.979
			C364.669,216.003,364.669,213.472,363.109,211.91z"/>
	</g>
</g>
<g>
	<g>
		<path d="M317.865,155.368c-1.562-1.562-4.092-1.562-5.654,0l-22.619,22.618c-1.561,1.563-1.561,4.093,0,5.655
			c0.781,0.78,1.805,1.171,2.828,1.171c1.023,0,2.047-0.39,2.828-1.171l22.617-22.618
			C319.427,159.46,319.427,156.93,317.865,155.368z"/>
	</g>
</g>
<g>
	<g>
		<path d="M351.791,245.864l-76.35-76.351c-1.562-1.562-4.093-1.562-5.654,0c-1.562,1.562-1.562,4.092,0,5.654l76.35,76.351
			c0.781,0.78,1.805,1.171,2.828,1.171s2.047-0.39,2.826-1.171C353.353,249.956,353.353,247.426,351.791,245.864z"/>
	</g>
</g>
<g>
	<g>
		<path d="M351.799,279.782l-93.318-93.299c-1.561-1.562-4.092-1.562-5.654,0c-1.562,1.562-1.562,4.093,0,5.655l93.318,93.299
			c0.781,0.781,1.805,1.171,2.828,1.171s2.047-0.389,2.826-1.172C353.361,283.874,353.361,281.344,351.799,279.782z"/>
	</g>
</g>
<g>
	<g>
		<path d="M352.962,248.688c0-2.207-1.787-3.995-3.998-3.995s-3.998,1.792-3.998,4.002l0.016,22.606
			c0,2.211,1.795,3.999,3.998,3.999c0,0,0,0,0.008,0.001c2.203,0,3.99-1.796,3.99-3.999L352.962,248.688z"/>
	</g>
</g>
<g>
	<g>
		<path d="M348.989,267.302c-0.008,0-0.008,0-0.008,0c-2.203,0-3.998,1.788-3.998,3.998l-0.008,11.309
			c0,2.203,1.787,3.999,3.998,3.999s3.998-1.788,3.998-3.999l0.008-11.309C352.979,269.098,351.192,267.302,348.989,267.302z"/>
	</g>
</g>
<g>
	<g>
		<path d="M275.451,169.525c-3.024-3.023-7.038-4.69-11.309-4.694h-0.008c-4.27,0-8.28,1.659-11.291,4.674
			c-6.241,6.24-6.249,16.394-0.02,22.63c0.781,0.785,1.808,1.175,2.831,1.175c1.023,0,2.047-0.391,2.824-1.167
			c1.567-1.563,1.567-4.093,0.008-5.655c-3.115-3.124-3.112-8.205,0.012-11.329c1.504-1.503,3.504-2.331,5.637-2.331
			c0,0,0,0,0.008,0c2.13,0.004,4.138,0.836,5.646,2.343c1.56,1.57,4.099,1.563,5.654,0.008
			C277.004,173.618,277.004,171.087,275.451,169.525z"/>
	</g>
</g>
<g>
	<g>
		<path d="M445.105,22.473c-6.232-6.24-16.385-6.24-22.617,0c-6.232,6.237-6.232,16.382,0,22.618
			c0.781,0.781,1.805,1.172,2.828,1.172c1.022,0,2.045-0.391,2.826-1.173c1.562-1.562,1.562-4.092,0-5.654
			c-3.115-3.116-3.115-8.193,0-11.309c3.118-3.116,8.194-3.116,11.309,0c1.562,1.562,4.093,1.562,5.654,0
			C446.667,26.565,446.667,24.035,445.105,22.473z"/>
	</g>
</g>
<g>
	<g>
		<path d="M507.311,84.68c-1.56-1.562-4.092-1.562-5.654,0c-1.561,1.563-1.561,4.093,0,5.655c1.516,1.512,2.344,3.523,2.344,5.659
			c0,2.135-0.828,4.138-2.344,5.654c-1.505,1.512-3.513,2.343-5.646,2.347c-2.138,0-4.146-0.836-5.654-2.347
			c-1.562-1.57-4.099-1.562-5.654-0.008c-1.57,1.562-1.57,4.092-0.008,5.654c3.023,3.031,7.037,4.698,11.316,4.698
			c4.281-0.004,8.295-1.672,11.3-4.69c3.024-3.019,4.688-7.038,4.688-11.309C511.999,91.717,510.334,87.702,507.311,84.68z"/>
	</g>
</g>
<g>
	<g>
		<path d="M507.312,84.681l-62.207-62.207c-1.56-1.562-4.092-1.562-5.654,0c-1.561,1.562-1.561,4.092,0,5.654l62.207,62.207
			c0.781,0.78,1.805,1.171,2.828,1.171c1.024,0,2.047-0.391,2.826-1.17C508.874,88.774,508.874,86.243,507.312,84.681z"/>
	</g>
</g>
<g>
	<g>
		<path d="M490.349,101.644l-14.137-14.136c-1.56-1.562-4.092-1.562-5.654,0c-1.561,1.562-1.561,4.092,0,5.654l14.137,14.136
			c0.781,0.781,1.805,1.172,2.828,1.172c1.022,0,2.045-0.391,2.826-1.172C491.911,105.736,491.911,103.206,490.349,101.644z"/>
	</g>
</g>
<g>
	<g>
		<path d="M436.625,47.918l-8.482-8.481c-1.562-1.562-4.092-1.562-5.654,0s-1.562,4.092,0,5.654l8.482,8.481
			c0.781,0.781,1.803,1.172,2.826,1.172s2.047-0.39,2.828-1.172C438.187,52.011,438.187,49.48,436.625,47.918z"/>
	</g>
</g>
<g>
	<g>
		<path d="M289.568,296.77l-2.826-2.827c-1.562-1.562-4.092-1.561-5.654,0c-1.562,1.561-1.562,4.092,0,5.654l2.826,2.827
			c0.781,0.781,1.805,1.172,2.828,1.172c1.024,0,2.047-0.391,2.826-1.172C291.13,300.863,291.13,298.332,289.568,296.77z"/>
	</g>
</g>
<g>
	<g>
		<path d="M278.26,308.078l-5.654-5.654c-1.562-1.562-4.092-1.562-5.654,0c-1.562,1.562-1.562,4.092,0,5.654l5.654,5.654
			c0.781,0.781,1.805,1.172,2.828,1.172s2.045-0.39,2.826-1.172C279.822,312.171,279.822,309.64,278.26,308.078z"/>
	</g>
</g>
<g>
	<g>
		<path d="M266.951,319.388l-2.826-2.827c-1.558-1.562-4.09-1.562-5.652,0c-1.561,1.561-1.561,4.092,0,5.654l2.828,2.827
			c0.781,0.781,1.804,1.171,2.824,1.171c1.021,0,2.045-0.39,2.826-1.171C268.513,323.481,268.513,320.95,266.951,319.388z"/>
	</g>
</g>
<g>
	<g>
		<path d="M255.646,330.696l-5.654-5.654c-1.562-1.562-4.092-1.561-5.654,0c-1.562,1.561-1.562,4.092,0,5.654l5.654,5.654
			c0.781,0.781,1.804,1.172,2.827,1.172c1.023,0,2.046-0.39,2.827-1.172C257.209,334.789,257.209,332.258,255.646,330.696z"/>
	</g>
</g>
<g>
	<g>
		<path d="M244.337,342.006l-2.827-2.828c-1.562-1.562-4.092-1.562-5.654,0s-1.562,4.092,0,5.654l2.827,2.828
			c0.781,0.78,1.804,1.171,2.827,1.171s2.046-0.391,2.827-1.171C245.898,346.098,245.898,343.568,244.337,342.006z"/>
	</g>
</g>
<g>
	<g>
		<path d="M233.02,353.315l-5.655-5.654c-1.561-1.562-4.092-1.562-5.654,0c-1.562,1.561-1.562,4.092,0,5.654l5.654,5.654
			c0.782,0.781,1.805,1.172,2.828,1.172s2.047-0.391,2.827-1.172C234.581,357.407,234.581,354.877,233.02,353.315z"/>
	</g>
</g>
<g>
	<g>
		<path d="M289.569,274.144c-4.678-4.67-12.285-4.67-16.963,0c-1.562,1.562-1.562,4.093,0,5.655s4.093,1.562,5.654,0
			c1.562-1.562,4.093-1.562,5.654,0c0.781,0.78,1.805,1.171,2.828,1.171c1.024,0,2.047-0.391,2.827-1.171
			C291.131,278.237,291.131,275.706,289.569,274.144z"/>
	</g>
</g>
<g>
	<g>
		<path d="M363.406,212.241l-45.244-56.544c-1.383-1.723-3.891-2.004-5.623-0.625c-1.719,1.382-2,3.897-0.625,5.623l45.244,56.545
			c0.795,0.987,1.951,1.499,3.131,1.499c0.875,0,1.758-0.285,2.492-0.874C364.505,216.482,364.786,213.968,363.406,212.241z"/>
	</g>
</g>
<g>
	<g>
		<path d="M385.726,189.296c-1.562-1.562-4.092-1.562-5.654,0l-16.955,16.971c-1.562,1.562-1.562,4.096,0,5.654
			c0.779,0.781,1.803,1.172,2.826,1.172c1.024,0,2.047-0.391,2.828-1.172l16.955-16.971
			C387.288,193.388,387.288,190.854,385.726,189.296z"/>
	</g>
</g>
<g>
	<g>
		<path d="M340.482,132.744c-1.56-1.562-4.092-1.562-5.654,0l-16.955,16.971c-1.562,1.562-1.562,4.096,0,5.654
			c0.781,0.78,1.805,1.171,2.826,1.171c1.024,0,2.047-0.391,2.828-1.171l16.955-16.971
			C342.044,136.836,342.044,134.302,340.482,132.744z"/>
	</g>
</g>
<g>
	<g>
		<path d="M386.023,189.623l-45.236-56.544c-1.383-1.719-3.889-2.011-5.623-0.625c-1.719,1.382-2,3.897-0.625,5.623l45.236,56.545
			c0.797,0.988,1.953,1.5,3.131,1.5c0.875,0,1.758-0.286,2.492-0.875C387.125,193.864,387.406,191.349,386.023,189.623z"/>
	</g>
</g>
<g>
	<g>
		<path d="M408.351,166.678c-1.56-1.562-4.092-1.562-5.654,0l-16.963,16.971c-1.562,1.562-1.562,4.093,0,5.655
			c0.781,0.781,1.805,1.171,2.828,1.171c1.022,0,2.045-0.391,2.826-1.171l16.963-16.972
			C409.913,170.77,409.913,168.24,408.351,166.678z"/>
	</g>
</g>
<g>
	<g>
		<path d="M363.109,110.125c-1.562-1.562-4.093-1.562-5.654,0l-16.965,16.972c-1.561,1.561-1.561,4.092,0,5.654
			c0.781,0.78,1.805,1.171,2.828,1.171c1.024,0,2.045-0.39,2.826-1.171l16.965-16.972
			C364.669,114.218,364.669,111.687,363.109,110.125z"/>
	</g>
</g>
<g>
	<g>
		<path d="M408.648,167.006l-45.242-56.553c-1.375-1.718-3.891-2.011-5.625-0.625c-1.717,1.383-1.998,3.898-0.623,5.624
			l45.242,56.552c0.797,0.988,1.953,1.5,3.133,1.5c0.875,0,1.758-0.285,2.49-0.875C409.75,171.247,410.031,168.732,408.648,167.006z
			"/>
	</g>
</g>
<g>
	<g>
		<path d="M430.971,144.06c-1.562-1.562-4.093-1.562-5.654,0l-16.965,16.964c-1.561,1.561-1.561,4.092,0,5.654
			c0.781,0.781,1.805,1.171,2.828,1.171s2.047-0.39,2.826-1.171l16.965-16.963C432.531,148.153,432.531,145.622,430.971,144.06z"/>
	</g>
</g>
<g>
	<g>
		<path d="M385.726,87.496c-1.562-1.554-4.092-1.558-5.654,0.004l-16.955,16.979c-1.562,1.566-1.562,4.096,0,5.658
			c0.779,0.777,1.803,1.168,2.826,1.168c1.024,0,2.055-0.391,2.836-1.172l16.955-16.979
			C387.288,91.588,387.288,89.058,385.726,87.496z"/>
	</g>
</g>
<g>
	<g>
		<path d="M431.266,144.388l-45.244-56.553c-1.383-1.726-3.896-2.007-5.623-0.625c-1.719,1.383-2,3.897-0.625,5.624l45.244,56.552
			c0.797,0.988,1.951,1.5,3.131,1.5c0.875,0,1.758-0.285,2.492-0.875C432.367,148.629,432.648,146.114,431.266,144.388z"/>
	</g>
</g>
<g>
	<g>
		<path d="M453.588,121.442c-1.562-1.562-4.092-1.562-5.654,0l-16.955,16.963c-1.562,1.562-1.562,4.092,0,5.654
			c0.781,0.781,1.803,1.172,2.826,1.172s2.047-0.39,2.828-1.171l16.955-16.963C455.15,125.534,455.149,123.004,453.588,121.442z"/>
	</g>
</g>
<g>
	<g>
		<path d="M408.343,64.882c-1.56-1.562-4.092-1.562-5.654,0l-16.955,16.971c-1.562,1.563-1.562,4.097,0,5.655
			c0.781,0.78,1.805,1.171,2.828,1.171c1.022,0,2.045-0.391,2.826-1.172l16.955-16.971C409.905,68.974,409.905,66.44,408.343,64.882
			z"/>
	</g>
</g>
<g>
	<g>
		<path d="M453.883,121.771L408.648,65.21c-1.381-1.715-3.896-2.008-5.623-0.625c-1.719,1.382-1.998,3.897-0.625,5.623
			l45.237,56.561c0.797,0.984,1.953,1.499,3.133,1.499c0.873,0,1.755-0.285,2.489-0.874
			C454.985,126.012,455.266,123.497,453.883,121.771z"/>
	</g>
</g>
<g>
	<g>
		<path d="M481.867,93.162c-1.56-1.562-4.092-1.562-5.654,0l-22.617,22.625c-1.562,1.563-1.562,4.093,0,5.655
			c0.781,0.78,1.805,1.171,2.828,1.171c1.021,0,2.045-0.39,2.826-1.171l22.617-22.625C483.429,97.254,483.429,94.724,481.867,93.162
			z"/>
	</g>
</g>
<g>
	<g>
		<path d="M430.971,42.264c-1.562-1.562-4.093-1.562-5.654,0l-16.965,16.971c-1.561,1.562-1.561,4.093,0,5.655
			c0.781,0.781,1.805,1.171,2.828,1.171s2.047-0.391,2.826-1.171l16.965-16.972C432.531,46.357,432.531,43.826,430.971,42.264z"/>
	</g>
</g>
<g>
	<g>
		<path d="M176.609,341.872c-1.563-1.562-4.093-1.562-5.655,0c-1.562,1.562-4.097,1.562-5.659,0c-1.558-1.562-1.558-4.093,0-5.655
			c1.562-1.561,1.562-4.092,0-5.654c-1.561-1.562-4.092-1.562-5.654,0c-4.678,4.679-4.678,12.285,0,16.964
			c2.343,2.335,5.413,3.506,8.486,3.506s6.143-1.171,8.482-3.507C178.171,345.964,178.171,343.434,176.609,341.872z"/>
	</g>
</g>
<g>
	<g>
		<path d="M255.784,251.397c-2.261-2.269-5.272-3.518-8.474-3.522c-0.004,0-0.004,0-0.008,0c-3.206,0-6.216,1.249-8.485,3.519
			c-1.562,1.561-1.562,4.092,0,5.654c1.561,1.562,4.092,1.562,5.654,0c0.757-0.758,1.765-1.176,2.831-1.176c0,0,0,0,0.004,0
			c1.062,0,2.061,0.418,2.819,1.176c1.558,1.557,1.558,4.096,0,5.654c-1.562,1.561-1.562,4.092,0,5.654
			c0.781,0.781,1.804,1.172,2.827,1.172s2.046-0.39,2.828-1.172C260.458,263.679,260.458,256.071,255.784,251.397z"/>
	</g>
</g>
<g>
	<g>
		<path d="M244.47,251.394c-1.562-1.562-4.092-1.562-5.654,0l-79.175,79.17c-1.562,1.561-1.562,4.092,0,5.654
			c0.781,0.781,1.804,1.172,2.827,1.172c1.024,0,2.047-0.391,2.827-1.172l79.175-79.17
			C246.032,255.486,246.032,252.956,244.47,251.394z"/>
	</g>
</g>
<g>
	<g>
		<path d="M255.837,262.761c-1.561-1.566-4.092-1.566-5.654-0.008l-79.284,79.058c-1.566,1.561-1.566,4.092-0.008,5.662
			c0.781,0.781,1.805,1.171,2.832,1.171c1.023,0,2.042-0.39,2.823-1.163l79.283-79.062
			C257.396,266.858,257.396,264.326,255.837,262.761z"/>
	</g>
</g>
<g>
	<g>
		<path d="M300.629,251.011l-27.891-27.897c-1.562-1.562-4.092-1.562-5.654,0c-1.562,1.561-1.562,4.092,0,5.654l27.891,27.897
			c0.779,0.781,1.803,1.171,2.826,1.171s2.047-0.39,2.828-1.171C302.19,255.103,302.19,252.573,300.629,251.011z"/>
	</g>
</g>
<g>
</g>
<g>
</g>
<g>
</g>
<g>
</g>
<g>
</g>
<g>
</g>
<g>
</g>
<g>
</g>
<g>
</g>
<g>
</g>
<g>
</g>
<g>
</g>
<g>
</g>
<g>
</g>
<g>
</g>
</svg>
