<svg id="Solid" height="512" viewBox="0 0 512 512" width="512" xmlns="http://www.w3.org/2000/svg"><path d="m344 136v24h16v-24h16v24h16v-24h16v24h16v-24h24v40h-416v-40zm-312 56h96v16h-80a16.019 16.019 0 0 1 -16-16zm182.136 80a18.6 18.6 0 0 1 -18.459-20.911l3.385-27.089h58.756c.319 0 .632.027.95.036-5.634 13.362-15.126 21.475-28.338 24.119l3.14 15.69c19.07-3.817 33.332-16.433 40.856-35.872a36.422 36.422 0 0 1 17.355 19.021l10 25.006zm256.841 132.838a6.925 6.925 0 0 1 -5.855 3.162h-91.706l-66.779-166.947a52.329 52.329 0 0 0 -48.819-33.053h-113.818v-16h168v16h16v-16h96.633a52.646 52.646 0 0 0 -15.646 62.334l62.555 143.876a6.924 6.924 0 0 1 -.565 6.628z"/><path d="m424 376h16v16h-16z"/><path d="m40 104h16v16h-16z"/><path d="m408 104h16v16h-16z"/></svg>