<?xml version="1.0" encoding="iso-8859-1"?>
<!-- Generator: Adobe Illustrator 18.1.1, SVG Export Plug-In . SVG Version: 6.00 Build 0)  -->
<svg version="1.1" id="Capa_1" xmlns="http://www.w3.org/2000/svg" xmlns:xlink="http://www.w3.org/1999/xlink" x="0px" y="0px"
	 viewBox="0 0 316.379 316.379" style="enable-background:new 0 0 316.379 316.379;" xml:space="preserve">
<g>
	<g>
		<path style="fill:#010002;" d="M308.825,131.046c-2.676-2.502-10.443-3.693-46.46-3.693c-10.666,0-24.149,0.103-41.277,0.337
			c-9.926,0.136-17.367,0.234-22.692,0.234c-3.138,0-5.194-0.027-6.478-0.098l-1.175,0.005c-1.768,0.022-3.519,0.054-5.249,0.054
			c-14.762,0-28.876-1.229-39.243-15.909c-3.28-7.207-0.446-20.881,1.077-28.256l0.451-2.143c3.133-15.616,3.65-31.4-13.576-41.07
			c-5.504-3.095-10.971-3.737-14.8-1.762c-3.699,1.898-5.896,5.776-6.543,11.514c-0.185,1.692-0.071,3.552,0.071,5.771
			c0.451,7.544,1.202,20.173-10.568,38.324c-15.121,16.567-23.013,31.867-25.172,36.382c-7.533,4.4-14.305,7.8-20.864,11.085
			l-0.315,0.163c-7.006,3.519-14.25,7.169-22.257,11.922l-23.769,0.37l0,0H0v97.207v7.169h9.992h22.197l15.904,4.645
			c24.405,12.782,54.51,15.463,75.467,15.463c12.929,0,21.903-1.023,22.779-1.142c1.284,0.098,2.491,0.141,3.617,0.141
			c7.8,0,14.511-2.29,19.945-6.821c9.203-7.691,12.096-19.57,12.945-24.623c8.072-3.247,13.413-8.169,15.828-14.637
			c2.959-7.93,0.669-16.051-1.104-20.445c7.071-3.894,11.476-9.105,13.081-15.48c3.285-13.032-6.543-25.428-6.668-25.58
			c-0.109-0.114-0.223-0.245-0.332-0.375c4.242-0.533,11.253-1.371,19.281-2.344l11.161-1.354
			c35.164-4.221,64.605-7.789,68.853-8.61c7.359-1.425,12.455-6.206,13.315-12.488C317.021,139.471,314.095,134.011,308.825,131.046
			z"/>
	</g>
</g>
<g>
</g>
<g>
</g>
<g>
</g>
<g>
</g>
<g>
</g>
<g>
</g>
<g>
</g>
<g>
</g>
<g>
</g>
<g>
</g>
<g>
</g>
<g>
</g>
<g>
</g>
<g>
</g>
<g>
</g>
</svg>
