<svg height="512" viewBox="0 0 58 59" width="512" xmlns="http://www.w3.org/2000/svg"><g id="023---Crossed-Katanas" transform="translate(-1)"><path id="Shape" d="m45.13 43.29-3.13 3.91c-34.08-27.2-39.58-39.74-41-44.94-.12043241-.4547962.09244078-.93203463.51129997-1.1462787.4188592-.21424407.93041269-.10754573 1.22870003.2562787 4.31 5.18 14.91 19.13 42.39 41.92z"/><path id="Shape" d="m51.13 47.94-1.46 6.28-3.21-3 3.4-4.25z"/><path id="Shape" d="m58.86 55-2.86 3.51c-.1505561.2538932-.4055904.4283008-.6968022.4765146-.2912118.0482139-.5888477-.034692-.8131978-.2265146l-3.21-3 6.61-2.6.68.52c.4243557.2982143.5502772.871374.29 1.32z"/><path id="Shape" d="m56.08 51.75-4.16 1.64.95-4.11z"/><path id="Shape" d="m41.38 52.78c-.4289082-.3434539-.5003569-.9686301-.16-1.4l8-10c.3565237-.3777024.9428527-.4195872 1.349445-.0963985.4065922.3231887.4980777.9038491.210555 1.3363985l-8 10c-.3434539.4289082-.9686301.5003569-1.4.16z"/><path id="Shape" d="m24.53 35.05c1.2733333 1.1533333 2.5866667 2.32 3.94 3.5-3.1466667 2.7-6.6366667 5.5833333-10.47 8.65l-3.13-3.91c3.48-2.86 6.7-5.6066667 9.66-8.24z"/><path id="Shape" d="m59 2.26c-1.1 4.14-4.81 13-23.51 30.11-1.38-1.24-2.7-2.43-4-3.59 9.2979218-8.4318009 17.9023503-17.5980421 25.73-27.41.2743095-.43444969.8332144-.59032436 1.2927726-.36054525.4595583.22977912.6702015.77042786.4872274 1.25054525z"/><path id="Shape" d="m8.87 47.94 1.46 6.28 3.21-3-3.4-4.25z"/><path id="Shape" d="m1.14 55 2.86 3.51c.15055612.2538932.40559038.4283008.69680221.4765146.29121184.0482139.58884765-.034692.81319779-.2265146l3.21-3-6.61-2.6-.68.52c-.42435572.2982143-.55027717.871374-.29 1.32z"/><path id="Shape" d="m3.92 51.75 4.16 1.64-.95-4.11z"/><path id="Shape" d="m18.63 52.78c.4257366-.3464209.4926824-.9712485.15-1.4l-8-10c-.3434539-.4289082-.96863007-.5003569-1.4-.16-.42890818.3434539-.50035688.9686301-.16 1.4l8 10c.1652201.2089813.4069976.3433986.6717023.373436s.5304531-.0467883.7382977-.213436z"/></g></svg>